<?xml version="1.0" standalone="no"?>
<!DOCTYPE svg PUBLIC "-//W3C//DTD SVG 20010904//EN"
 "http://www.w3.org/TR/2001/REC-SVG-20010904/DTD/svg10.dtd">
<svg version="1.0" xmlns="http://www.w3.org/2000/svg"
 width="256.000000pt" height="256.000000pt" viewBox="0 0 256.000000 256.000000"
 preserveAspectRatio="xMidYMid meet">
<metadata>
Created by potrace 1.14, written by Peter Selinger 2001-2017
</metadata>
<g transform="translate(0.000000,256.000000) scale(0.100000,-0.100000)"
fill="#000000" stroke="none">
<path d="M1284 2477 c-67 -142 -208 -382 -266 -452 -5 -5 -17 -21 -28 -34 -11
-13 -20 -27 -20 -30 0 -3 -15 -23 -33 -43 -17 -20 -42 -49 -54 -65 -31 -41
-104 -127 -168 -198 -16 -19 -55 -62 -85 -96 -30 -34 -70 -77 -88 -96 -19 -18
-32 -33 -29 -33 2 0 -19 -24 -47 -53 -28 -30 -67 -72 -87 -95 -62 -71 -62 -72
-64 173 -1 121 -5 246 -9 278 -3 31 -9 83 -12 115 -22 215 -75 430 -108 433
-42 5 -94 -21 -104 -51 -6 -18 1 -67 24 -170 18 -80 36 -167 40 -195 3 -27 8
-53 9 -56 4 -5 7 -29 21 -129 12 -93 18 -221 19 -391 l0 -196 -30 -29 c-30
-29 -55 -73 -55 -98 0 -8 14 -27 31 -44 l31 -30 -6 -174 c-4 -95 -9 -191 -11
-213 -2 -22 -6 -82 -9 -132 -6 -106 4 -126 58 -121 24 2 35 11 53 43 31 58 34
76 39 335 3 129 7 240 9 247 4 12 9 12 60 -2 32 -9 237 -86 288 -109 293 -132
562 -232 709 -264 109 -23 122 -20 138 29 23 69 10 80 -159 135 -80 27 -150
51 -154 55 -5 3 6 56 24 118 l32 111 116 56 c143 69 191 107 228 182 24 49 28
69 28 145 0 97 -5 91 80 102 28 3 64 9 80 12 17 2 67 10 112 17 87 13 93 11
98 -34 1 -9 7 -31 13 -50 6 -19 14 -51 17 -70 3 -19 11 -62 17 -95 6 -33 12
-71 14 -85 9 -70 57 -297 66 -314 26 -49 53 -58 86 -28 22 19 25 -3 -31 242
-30 134 -36 162 -43 210 -2 19 -15 80 -28 135 -14 61 -20 104 -14 111 5 7 25
15 46 18 71 13 91 26 98 63 5 26 2 39 -10 51 -16 16 -19 16 -54 -4 -20 -12
-54 -26 -74 -32 -34 -9 -37 -8 -48 18 -6 15 -13 34 -14 41 -2 8 -6 21 -9 29
-3 8 -15 49 -27 90 -36 126 -90 270 -136 366 -71 144 -117 185 -163 143 -15
-14 -33 -19 -63 -18 -24 1 -48 1 -55 0 -13 -1 -26 -34 -63 -166 -16 -55 -49
-172 -75 -260 -26 -88 -49 -170 -52 -182 -3 -15 -13 -23 -27 -23 -35 0 -119
-45 -158 -85 -21 -21 -38 -42 -38 -47 0 -4 -4 -8 -9 -8 -5 0 -17 22 -26 50
-20 60 -93 144 -141 162 -41 14 -41 19 -9 49 13 13 25 28 25 32 0 4 9 18 21
30 27 29 150 204 169 243 8 16 18 31 21 34 11 9 84 169 89 195 1 3 5 19 10 36
5 18 12 55 15 82 10 88 -15 139 -41 84z m426 -286 c5 -11 16 -25 23 -33 20
-20 85 -149 113 -224 28 -75 68 -208 92 -305 5 -20 12 -41 16 -47 7 -11 -10
-25 -34 -29 -44 -6 -100 -14 -121 -18 -13 -2 -42 -6 -64 -10 -66 -9 -109 -16
-126 -21 -9 -2 -36 16 -65 43 -27 27 -58 53 -68 58 -18 10 -16 19 34 175 73
229 93 286 128 357 16 34 27 64 24 67 -3 4 4 6 16 6 12 0 26 -9 32 -19z
m-1076 -863 c12 -70 49 -125 150 -223 56 -56 122 -126 146 -156 41 -51 90
-141 90 -165 0 -9 -93 18 -200 59 -8 3 -44 15 -80 27 -36 12 -74 25 -85 30
-11 4 -42 16 -70 25 -191 65 -265 95 -265 107 0 9 -6 2 170 186 74 77 136 140
137 139 1 -2 4 -14 7 -29z m459 -514 c-16 -48 -37 -64 -56 -45 -8 8 -1 21 28
51 21 22 40 40 41 40 2 0 -4 -21 -13 -46z"/>
</g>
</svg>
